<?xml version="1.0" standalone="no"?>
<!DOCTYPE svg PUBLIC "-//W3C//DTD SVG 20010904//EN"
 "http://www.w3.org/TR/2001/REC-SVG-20010904/DTD/svg10.dtd">
<svg version="1.0" xmlns="http://www.w3.org/2000/svg"
 width="64.000000pt" height="64.000000pt" viewBox="0 0 64.000000 64.000000"
 preserveAspectRatio="xMidYMid meet">

<g transform="translate(0.000000,64.000000) scale(0.100000,-0.100000)"
fill="#000000" stroke="none">
<path d="M244 625 c-4 -9 -3 -28 1 -43 4 -15 8 -47 7 -72 l0 -44 19 23 c23 28
24 43 5 80 -8 15 -12 38 -9 49 6 25 -14 31 -23 7z"/>
<path d="M177 603 c-11 -11 -8 -61 4 -69 7 -4 9 -22 6 -45 -6 -44 8 -52 25
-14 9 20 8 32 -5 59 -8 19 -13 43 -10 55 5 20 -6 28 -20 14z"/>
<path d="M314 595 c-4 -9 -3 -28 1 -43 4 -15 7 -44 7 -64 0 -44 13 -49 30 -13
9 21 8 32 -6 61 -9 20 -14 45 -11 55 7 23 -13 26 -21 4z"/>
<path d="M0 347 c0 -92 22 -167 61 -212 l31 -35 -33 0 c-52 0 -65 -12 -50 -48
20 -48 43 -52 277 -52 l215 0 25 25 c16 16 24 34 22 48 -3 19 -11 23 -55 27
l-51 5 21 26 c16 19 35 28 66 32 31 4 53 15 75 36 28 28 31 38 34 106 l4 75
-57 0 c-48 0 -58 3 -62 20 -5 19 -14 20 -149 20 -89 0 -144 -4 -144 -10 0 -6
52 -10 136 -10 l137 0 -5 -82 c-5 -91 -21 -133 -71 -185 l-31 -33 -128 0
c-150 0 -164 6 -209 84 -25 45 -29 61 -29 134 l0 82 45 0 c25 0 45 5 45 10 0
6 -27 10 -60 10 l-60 0 0 -73z m610 -45 c0 -69 -17 -97 -67 -111 -20 -6 -39
-9 -41 -6 -8 8 10 25 28 25 27 0 60 47 60 86 0 31 -3 34 -30 34 -20 0 -30 5
-30 15 0 11 11 15 40 15 l40 0 0 -58z m-52 -24 c-4 -44 -38 -53 -38 -10 0 32
7 42 27 42 10 0 13 -10 11 -32z m-43 -228 c-17 -19 -31 -20 -240 -20 -215 0
-245 4 -245 32 0 4 113 8 252 8 250 0 251 0 233 -20z"/>
<path d="M170 410 c0 -5 5 -10 10 -10 6 0 10 5 10 10 0 6 -4 10 -10 10 -5 0
-10 -4 -10 -10z"/>
<path d="M440 286 c0 -12 -11 -45 -25 -71 -33 -61 -27 -80 9 -32 30 39 49 127
27 127 -6 0 -11 -11 -11 -24z"/>
<path d="M346 141 c-4 -5 -2 -12 3 -15 5 -4 12 -2 15 3 4 5 2 12 -3 15 -5 4
-12 2 -15 -3z"/>
</g>
</svg>
