<?xml version="1.0" standalone="no"?>
<!DOCTYPE svg PUBLIC "-//W3C//DTD SVG 20010904//EN"
 "http://www.w3.org/TR/2001/REC-SVG-20010904/DTD/svg10.dtd">
<svg version="1.0" xmlns="http://www.w3.org/2000/svg"
 width="64.000000pt" height="64.000000pt" viewBox="0 0 64.000000 64.000000"
 preserveAspectRatio="xMidYMid meet">

<g transform="translate(0.000000,64.000000) scale(0.100000,-0.100000)"
fill="#000000" stroke="none">
<path d="M78 533 c-47 -32 -48 -43 -3 -43 54 0 47 -32 -12 -61 l-48 -24 -3
-127 c-3 -126 -2 -127 22 -143 99 -65 424 -72 546 -12 l45 22 0 130 0 130 -47
24 c-60 29 -67 61 -13 61 19 0 35 4 35 9 0 8 -74 61 -85 61 -3 0 -5 -24 -5
-54 l0 -55 -37 6 c-52 7 -102 21 -80 22 13 1 17 10 17 41 l0 40 -90 0 -90 0 0
-40 c0 -31 4 -40 18 -41 21 -1 -29 -15 -80 -22 l-38 -6 0 55 c0 30 -3 54 -7
53 -5 0 -25 -12 -45 -26z m312 -13 c0 -18 -7 -20 -70 -20 -63 0 -70 2 -70 20
0 18 7 20 70 20 63 0 70 -2 70 -20z m-280 0 c0 -5 -5 -10 -11 -10 -5 0 -7 5
-4 10 3 6 8 10 11 10 2 0 4 -4 4 -10z m435 0 c3 -5 1 -10 -4 -10 -6 0 -11 5
-11 10 0 6 2 10 4 10 3 0 8 -4 11 -10z m-202 -47 c-13 -2 -33 -2 -45 0 -13 2
-3 4 22 4 25 0 35 -2 23 -4z m186 -47 c30 -8 61 -22 70 -31 15 -15 14 -18 -8
-36 -23 -19 -74 -25 -106 -13 -14 6 -13 9 6 30 34 36 13 42 -24 8 -29 -28 -37
-30 -84 -26 -53 4 -53 4 -53 38 0 19 -4 34 -10 34 -5 0 -10 -15 -10 -34 0 -34
0 -34 -52 -38 -48 -4 -56 -2 -85 26 -37 34 -58 28 -24 -8 19 -21 20 -24 6 -30
-32 -12 -83 -6 -106 13 -20 16 -21 21 -10 35 14 17 65 33 146 47 71 11 280 2
344 -15z m-419 -114 c33 -11 88 -15 210 -15 159 0 192 4 273 38 14 6 17 1 17
-34 0 -48 -17 -62 -100 -82 -84 -21 -320 -18 -395 5 -77 23 -85 30 -85 78 0
34 3 39 18 33 9 -4 37 -14 62 -23z m326 21 l49 -7 -40 -7 c-52 -10 -179 -11
-241 -2 l-49 7 35 7 c50 9 188 10 246 2z m-326 -131 c33 -11 88 -15 210 -15
159 0 192 4 273 38 14 6 17 2 17 -28 0 -19 -6 -39 -12 -45 -16 -12 -107 -38
-165 -46 -42 -6 -43 -6 -43 24 l0 30 -70 0 -70 0 0 -30 c0 -30 -1 -30 -42 -24
-59 8 -150 34 -165 46 -7 6 -13 26 -13 45 0 30 3 34 18 28 9 -4 37 -14 62 -23z
m260 -82 c0 -17 -7 -20 -50 -20 -43 0 -50 3 -50 20 0 17 7 20 50 20 43 0 50
-3 50 -20z"/>
<path d="M50 285 c0 -14 5 -25 10 -25 6 0 10 11 10 25 0 14 -4 25 -10 25 -5 0
-10 -11 -10 -25z"/>
<path d="M570 285 c0 -14 5 -25 10 -25 6 0 10 11 10 25 0 14 -4 25 -10 25 -5
0 -10 -11 -10 -25z"/>
<path d="M120 265 c0 -14 5 -25 10 -25 6 0 10 11 10 25 0 14 -4 25 -10 25 -5
0 -10 -11 -10 -25z"/>
<path d="M500 265 c0 -14 5 -25 10 -25 6 0 10 11 10 25 0 14 -4 25 -10 25 -5
0 -10 -11 -10 -25z"/>
<path d="M210 245 c0 -14 5 -25 10 -25 6 0 10 11 10 25 0 14 -4 25 -10 25 -5
0 -10 -11 -10 -25z"/>
<path d="M410 245 c0 -14 5 -25 10 -25 6 0 10 11 10 25 0 14 -4 25 -10 25 -5
0 -10 -11 -10 -25z"/>
<path d="M310 240 c0 -11 5 -20 10 -20 6 0 10 9 10 20 0 11 -4 20 -10 20 -5 0
-10 -9 -10 -20z"/>
</g>
</svg>
